<?xml version="1.0" encoding="UTF-8"?>
<svg id="Layer_1" xmlns="http://www.w3.org/2000/svg" version="1.1" viewBox="0 0 731.86 236.05">
  <!-- Generator: Adobe Illustrator 30.2.1, SVG Export Plug-In . SVG Version: 2.1.1 Build 1)  -->
  <defs>
    <style>
      .st0, .st1 {
        fill: #010101;
      }

      .st1 {
        fill-rule: evenodd;
      }
    </style>
  </defs>
  <g>
    <path class="st1" d="M77.29,173.13v11.36c9.72-2.42,25.79-7.52,37.16-11.78-3.86-1.08-7.48-1.51-13.27-1.6s-16.83.92-23.89,2.02Z"/>
    <path class="st1" d="M84.08,146.85c6.43-.71,14.03-.54,22.06.43l.06-7.26c.06-7.62-3.3-4.38-9.53-2.07l-2.65-5.45c4.77-3.64,18.78-15.55,4.2-10.66l-2.51-4.86c6.07-4.01,17.74-12.49,3.62-9.06l-1.66-3.86c3.41-2.05,15.67-11.49,4.45-8.71l-1.72-3.79c5.08-4.06,6.1-7.37,7.51-14.9h2.74c1.42,7.53,2.43,10.83,7.52,14.9l-1.72,3.79c-11.22-2.79,1.04,6.66,4.44,8.71l-1.65,3.86c-14.12-3.43-2.45,5.05,3.62,9.06l-2.51,4.86c-14.58-4.89-.56,7.03,4.2,10.66l-2.65,5.45c-6.23-2.31-9.59-5.55-9.53,2.07l.06,8.16c5.39.9,10.88,2.15,16.28,3.69,3.57,1.02,7.15,2.2,10.67,3.53,1.16.43,2.29.88,3.42,1.34v-15.44c0-7.59-1.05-9.18-9.95-3.4l-3.83-5.57c6-5.06,20.62-18.14,4.51-11.39l-2.6-5.53c4.67-3.69,18.41-15.78,4.12-10.82l-2.46-4.93c5.95-4.07,17.39-12.68,3.55-9.2l-1.62-3.91c3.34-2.07,15.35-11.66,4.35-8.83l-1.68-3.85c4.98-4.12,5.98-7.47,7.37-15.11h2.73c1.39,7.64,2.39,10.99,7.37,15.11l-1.69,3.85c-11-2.83,1.02,6.76,4.36,8.83l-1.62,3.91c-13.85-3.48-2.4,5.13,3.55,9.2l-2.46,4.93c-14.29-4.96-.56,7.13,4.12,10.82l-2.59,5.53c-16.11-6.75-1.49,6.33,4.52,11.39l-3.83,5.57c-8.9-5.78-9.96-4.18-9.95,3.4v16.31c9.62-4.07,19.67-7.55,30.38-9.55l.06-8.04c.06-7.62-3.3-4.38-9.53-2.07l-2.65-5.45c4.77-3.64,18.78-15.55,4.2-10.66l-2.5-4.86c6.07-4.01,17.75-12.49,3.62-9.06l-1.39-4.33c2.05-1.23,5.59-5.69,7.01-8l-4.14-3.13-14.18-10.54-.4-49.46L53.83,110.85c-.68,2.69,2.63,7.4,5.23,7.59l18.23-12.8v42.12l6.79-.94v.03Z"/>
    <path class="st1" d="M193.15,106.59l-.57,1.33c-14.12-3.43-2.45,5.05,3.62,9.06l-2.5,4.86c-14.58-4.89-.57,7.03,4.2,10.66l-2.65,5.45c-6.24-2.31-9.59-5.55-9.53,2.07l.05,7.05c7.05-.89,14.39-1.1,22.07-.39h0s7.59.81,7.59.81v-12.38l9.62,7c2.49-.82,5.45-5.12,5.09-8.01l-36.99-27.51Z"/>
    <path class="st1" d="M126.72,158.92c-15.33-4.39-38.06-5.32-49.43-3.86v11.32c7.88-1,24.8-1.93,34.63,0,1.58.31,7.66,1.9,10.11,2.85l15.84-6.59c-1.45-.52-7.69-2.74-11.15-3.73Z"/>
    <path class="st1" d="M146.5,166.39h0s.15.07.03.01h-.03Z"/>
    <path class="st1" d="M178.29,95.59l14.86,11,1.46-2.58c-3.41-2.05-15.08-20.2-4.03-16.58l.19-4.38c-5.93-3.06-5.79-8.85-6.31-14.79h-3.34c-1.41,7.53-1.26,11.45-6.88,15.17l.05,4.33,3.86-.73c2.64-.38.68,7,.13,8.55Z"/>
    <g>
      <path class="st0" d="M206.42,157.62c-1.76-.84-3.82-.58-6.39-.76-2.07-.15-5.82-.69-7.15-.89-.32-.05-.63-.1-.95-.17l-2.24-.21c.42.82,2.59,1.43,3.44,1.79,2.17.89,7.19,2.55,8.81,3.11,2.18.75,2.38,1.22,2.74,3.29.29,1.68.32,3.4.13,5.1-.14,1.28-.26,2.92-1.51,3.61-1.17.65-10.03,2.59-11.18,3.21-.34.18-.85.61-1,1.05l3.04-.61,9.91-2.05c.6-.19,4.03-.6,4.57-1.83.81-1.81.76-6.35.58-9.71-.19-3.46-2.11-4.61-2.79-4.93Z"/>
      <path class="st0" d="M196.34,172.58c.54-1.23.55-1.98.89-3.9.11-.61.38-1.64.95-1.79l5.25-.64c-1.75-.21-5.26-.78-6.03-2.18-.87-1.59-.98-2.58-1.98-4.09-.48-.72-2.95-1.4-3.77-1.81,1.93,2.7,3.27,5.9,3.1,9.25-.1,2.08-.44,3.33-1.33,5.18l-1.18,1.76c.7-.39,3.79-1.08,4.1-1.78Z"/>
      <path class="st0" d="M129.74,171.51c-14.16,6.93-40.84,16.3-41.33,16.45s-1.29.39-1.91.48h34.1s43.13,0,43.13,0c15.81-6.68,32.59-8.72,51.72-9.29v-27.85c-31.24-4.53-62.57,8.89-85.7,20.21ZM140.41,183.41c-7.72-4.89-18.58-.18-27.26,1.2,7.24-3.66,19.82-5.65,25.48-12.31,1.15-1.35,4.7-3.75,6.35-4.65-2.94,5.62-2.87,9.27-1.67,12.49.92,2.49,2.99,4.47,6.24,5.94-1.25-.31-7.97-1.93-9.14-2.67ZM152.15,183.57c-2.38-1.7-3.75-4.16-4.23-7.02-1.16-5.58,1.33-10.41,6.27-13.16-2.7,3.34-3.71,7.44-2.86,11.59,1.2,6.19,5.06,9.89,11.38,11.13-3.71.6-7.53-.36-10.56-2.53ZM159.92,175.11c-3.72-7.56,1.19-15.2,7.67-17.57-5.25,3.09-7.3,9.67-4.81,15.39,2.53,5.83,9.13,10.15,14.77,7.84-5.33,3.31-14.41,1.18-17.63-5.67ZM179.04,176.74c-5.23.82-10.14-2.73-11.02-7.9-.9-5.26,2.62-10.37,8.08-11.19,5.42-.82,10.2,2.92,11,8.09.82,5.27-2.84,10.19-8.06,11.01ZM211.35,174.89c-.91,1.06-8.86,1.05-8.86,1.05-4.75.39-9.43,1.04-14.12,1.95-.34.07-.63.24-.89-.06,1.41-.93,3.13-3.29,3.96-4.69,1.25-2.13,1.99-4.58,1.68-7.07-.41-3.39-2.21-6.21-4.27-8.88-.69-.91-2.69-2.06-3.58-2.96,2.9.45,8.48.64,10.55.61,2.07-.04,14.06-.41,15.75,1.2,1.18,1.12,1.35,7.26,1.42,8.88.13,2.96.29,7.73-1.64,9.98Z"/>
      <path class="st0" d="M178.98,160.94c-3.7-.85-7.32,1.71-7.81,5.4-.49,3.71,2.34,7.19,6.1,7.25,2.98.05,5.41-1.63,6.37-4.39,1.26-3.6-1.09-7.45-4.67-8.27Z"/>
    </g>
    <path class="st1" d="M215.44,183.67v4.77h-40.68s17.34-4.57,40.68-4.77Z"/>
  </g>
  <path class="st0" d="M283.17,88.41h-15.23v39.73h-7.85v-39.73h-15.23v-7.25h38.32v7.25Z"/>
  <path class="st0" d="M308.27,97.2l-3.36,6.11c-1.88-1.28-3.56-1.81-5.57-1.81-5.37,0-8.79,3.96-8.79,10.47v16.17h-7.52v-33.15h6.71l.07,5.1c2.62-4.03,5.91-5.77,10.07-5.77,3.22,0,6.37,1.07,8.39,2.89Z"/>
  <path class="st0" d="M344.98,94.98v33.15h-6.71l-.07-4.43c-2.55,3.22-6.98,5.17-12.08,5.17-9.73,0-16.44-7.11-16.44-17.31s6.71-17.31,16.44-17.31c5.17,0,9.53,1.95,12.08,5.17l.07-4.43h6.71ZM337.47,111.56c0-6.17-4.16-10.47-10.13-10.47s-10.13,4.29-10.13,10.47,4.16,10.47,10.13,10.47,10.13-4.29,10.13-10.47Z"/>
  <path class="st0" d="M386.52,109.82v18.32h-7.52v-17.85c0-5.84-3.02-9.19-8.05-9.19-5.5,0-9.33,4.03-9.33,9.6v17.45h-7.52v-33.15h6.71l.07,4.36c2.82-3.36,6.85-5.03,11.48-5.03,8.52,0,14.16,6.04,14.16,15.5Z"/>
  <path class="st0" d="M391.7,124.04l3.49-5.44c2.95,2.35,7.31,3.69,11.68,3.69s6.64-1.34,6.64-3.76-2.15-3.49-7.25-4.03c-8.66-.81-13.56-4.43-13.56-10.2s5.77-10.13,14.36-10.13c5.03,0,9.46,1.28,13.15,3.83l-3.29,5.37c-2.95-1.88-6.11-2.82-9.53-2.82-4.76,0-7.31,1.34-7.31,3.76,0,2.15,1.95,3.29,6.78,3.83,9.8,1.07,14.09,4.23,14.09,10.47s-5.7,10.33-14.29,10.33c-5.57,0-10.54-1.61-14.97-4.9Z"/>
  <path class="st0" d="M439.68,92.97v2.01h9.86v6.44h-9.86v26.71h-7.52v-26.71h-6.24v-6.44h6.24v-2.01c0-8.46,5.37-12.68,12.15-12.68,3.02,0,5.7.87,8.46,2.82l-2.89,5.3c-1.81-1.14-3.15-1.68-4.97-1.68-3.09,0-5.23,1.88-5.23,6.24Z"/>
  <path class="st0" d="M451.5,111.56c0-9.93,6.91-17.31,17.72-17.31s17.65,7.38,17.65,17.31-6.91,17.31-17.65,17.31-17.72-7.38-17.72-17.31ZM479.35,111.56c0-5.77-3.96-10.47-10.13-10.47s-10.2,4.7-10.2,10.47,3.96,10.47,10.2,10.47,10.13-4.7,10.13-10.47Z"/>
  <path class="st0" d="M519.08,97.2l-3.36,6.11c-1.88-1.28-3.56-1.81-5.57-1.81-5.37,0-8.79,3.96-8.79,10.47v16.17h-7.52v-33.15h6.71l.07,5.1c2.62-4.03,5.91-5.77,10.07-5.77,3.22,0,6.37,1.07,8.39,2.89Z"/>
  <path class="st0" d="M576.52,108.74v19.39h-7.52v-18.79c0-5.3-2.42-8.25-6.91-8.25-4.97,0-8.25,3.49-8.25,8.66v18.39h-7.52v-18.79c0-5.3-2.48-8.25-6.98-8.25-4.9,0-8.25,3.49-8.25,8.66v18.39h-7.52v-33.15h6.71l.07,3.89c2.42-3.09,5.64-4.56,9.8-4.56,4.7,0,8.66,2.21,10.74,5.84,2.62-3.89,6.64-5.84,11.81-5.84,8.52,0,13.82,5.44,13.82,14.43Z"/>
  <path class="st0" d="M584.17,85.46c0-2.75,2.01-4.7,4.76-4.7,2.89,0,4.9,1.95,4.9,4.7s-2.01,4.56-4.9,4.56-4.76-1.95-4.76-4.56ZM585.18,94.98h7.52v33.15h-7.52v-33.15Z"/>
  <path class="st0" d="M634.3,109.82v18.32h-7.52v-17.85c0-5.84-3.02-9.19-8.05-9.19-5.5,0-9.33,4.03-9.33,9.6v17.45h-7.52v-33.15h6.71l.07,4.36c2.82-3.36,6.85-5.03,11.48-5.03,8.52,0,14.16,6.04,14.16,15.5Z"/>
  <path class="st0" d="M667.99,123.71c5.3,1.95,8.25,5.64,8.25,10.54,0,8.39-6.98,13.76-17.65,13.76s-17.92-5.97-17.52-14.9h7.38c-.13,4.9,3.83,8.12,10.13,8.12s10.07-2.82,10.07-7.05-3.76-6.71-9.93-6.71c-11.01,0-17.98-6.44-17.98-16.51s7.45-16.71,17.72-16.71c3.49,0,6.64.81,8.99,2.21l4.23-5.17,5.44,4.16-4.63,5.37c2.82,3.29,3.96,6.24,3.96,10.13,0,5.91-2.95,10.33-8.46,12.75ZM668.93,110.96c0-5.91-4.09-9.86-10.33-9.86s-10.33,3.96-10.33,9.86,4.16,9.73,10.33,9.73,10.33-3.89,10.33-9.73Z"/>
  <path class="st0" d="M260.09,141.47h7.85v39.66h24.76v7.31h-32.61v-46.98Z"/>
  <path class="st0" d="M331.23,155.29v33.15h-6.71l-.07-4.43c-2.55,3.22-6.98,5.17-12.08,5.17-9.73,0-16.44-7.11-16.44-17.31s6.71-17.31,16.44-17.31c5.17,0,9.53,1.95,12.08,5.17l.07-4.43h6.71ZM323.71,171.87c0-6.17-4.16-10.47-10.13-10.47s-10.13,4.29-10.13,10.47,4.16,10.47,10.13,10.47,10.13-4.29,10.13-10.47Z"/>
  <path class="st0" d="M372.77,170.12v18.32h-7.52v-17.85c0-5.84-3.02-9.19-8.05-9.19-5.5,0-9.33,4.03-9.33,9.6v17.45h-7.52v-33.15h6.71l.07,4.36c2.82-3.36,6.85-5.03,11.48-5.03,8.52,0,14.16,6.04,14.16,15.5Z"/>
  <path class="st0" d="M413.51,141.47v46.98h-6.71l-.07-4.43c-2.55,3.22-6.98,5.17-12.21,5.17-9.4,0-16.31-6.84-16.31-17.31s6.91-17.31,16.31-17.31c4.76,0,8.86,1.61,11.48,4.29v-17.38h7.52ZM405.99,171.87c0-6.17-4.16-10.47-10.13-10.47s-10.13,4.29-10.13,10.47,4.16,10.47,10.13,10.47,10.13-4.29,10.13-10.47Z"/>
  <path class="st0" d="M420.22,184.35l3.49-5.44c2.95,2.35,7.31,3.69,11.68,3.69s6.64-1.34,6.64-3.76-2.15-3.49-7.25-4.03c-8.66-.81-13.56-4.43-13.56-10.2s5.77-10.13,14.36-10.13c5.03,0,9.46,1.28,13.15,3.83l-3.29,5.37c-2.95-1.88-6.11-2.82-9.53-2.82-4.76,0-7.31,1.34-7.31,3.76,0,2.15,1.95,3.29,6.78,3.83,9.8,1.07,14.09,4.23,14.09,10.47s-5.7,10.33-14.29,10.33c-5.57,0-10.54-1.61-14.97-4.9Z"/>
  <path class="st0" d="M453.71,171.87c0-10.27,7.11-17.31,17.65-17.31,4.83,0,8.99,1.68,12.55,5.1l-4.56,4.9c-2.01-2.01-4.9-3.15-7.85-3.15-6.04,0-10.27,4.29-10.27,10.47s4.16,10.47,10.27,10.47c3.22,0,6.17-1.21,8.19-3.42l4.63,5.03c-3.69,3.56-7.79,5.23-12.88,5.23-10.74,0-17.72-6.84-17.72-17.31Z"/>
  <path class="st0" d="M522.7,155.29v33.15h-6.71l-.07-4.43c-2.55,3.22-6.98,5.17-12.08,5.17-9.73,0-16.44-7.11-16.44-17.31s6.71-17.31,16.44-17.31c5.17,0,9.53,1.95,12.08,5.17l.07-4.43h6.71ZM515.18,171.87c0-6.17-4.16-10.47-10.13-10.47s-10.13,4.29-10.13,10.47,4.16,10.47,10.13,10.47,10.13-4.29,10.13-10.47Z"/>
  <path class="st0" d="M566.12,171.87c0,10.2-6.71,17.31-16.44,17.31-4.63,0-8.72-1.61-11.34-4.36v18.92h-7.52v-48.45h6.71l.07,4.43c2.55-3.22,6.98-5.17,12.08-5.17,9.73,0,16.44,7.11,16.44,17.31ZM558.61,171.87c0-6.17-4.16-10.47-10.13-10.47s-10.13,4.29-10.13,10.47,4.23,10.47,10.13,10.47,10.13-4.29,10.13-10.47Z"/>
  <path class="st0" d="M605.18,174.68h-26.51c.6,4.83,4.63,7.92,10.47,7.92,3.76,0,7.52-1.34,9.53-3.42l4.56,4.43c-3.29,3.56-8.59,5.77-14.29,5.77-10.94,0-17.98-6.91-17.98-17.52s6.91-17.25,17.18-17.25c11.68,0,18.12,7.65,17.04,20.07ZM578.74,168.85h19.26c-.54-4.7-4.16-7.72-9.66-7.72s-8.66,2.82-9.6,7.72Z"/>
  <path class="st0" d="M610.61,184.35l3.49-5.44c2.95,2.35,7.31,3.69,11.68,3.69s6.64-1.34,6.64-3.76-2.15-3.49-7.25-4.03c-8.66-.81-13.56-4.43-13.56-10.2s5.77-10.13,14.36-10.13c5.03,0,9.46,1.28,13.15,3.83l-3.29,5.37c-2.95-1.88-6.11-2.82-9.53-2.82-4.77,0-7.31,1.34-7.31,3.76,0,2.15,1.95,3.29,6.78,3.83,9.8,1.07,14.09,4.23,14.09,10.47s-5.7,10.33-14.29,10.33c-5.57,0-10.54-1.61-14.97-4.9Z"/>
</svg>